<svg width="26" height="26" viewBox="0 0 26 26" fill="none" xmlns="http://www.w3.org/2000/svg">
<g clip-path="url(#clip0_9970_1667)">
<path d="M25.5234 13.1206C25.5234 6.21704 19.927 0.620605 13.0234 0.620605C6.11987 0.620605 0.523438 6.21704 0.523438 13.1206C0.523438 19.3596 5.09448 24.531 11.0703 25.4688V16.7339H7.89648V13.1206H11.0703V10.3667C11.0703 7.23389 12.9365 5.50342 15.7917 5.50342C17.1589 5.50342 18.5898 5.74756 18.5898 5.74756V8.82373H17.0137C15.4609 8.82373 14.9766 9.78735 14.9766 10.7769V13.1206H18.4434L17.8892 16.7339H14.9766V25.4688C20.9524 24.531 25.5234 19.3596 25.5234 13.1206Z" fill="#453D43"/>
</g>
<defs>
<clipPath id="clip0_9970_1667">
<rect width="25" height="25" fill="white" transform="translate(0.523438 0.620605)"/>
</clipPath>
</defs>
</svg>
