<svg width="26" height="26" viewBox="0 0 26 26" fill="none" xmlns="http://www.w3.org/2000/svg">
<path d="M19.6851 7.93532C18.8573 7.93694 18.1842 7.26665 18.1826 6.43882C18.1809 5.61098 18.8512 4.93787 19.6794 4.93625C20.5077 4.93463 21.1808 5.60531 21.1824 6.43314C21.1836 7.26098 20.5133 7.9337 19.6851 7.93532Z" fill="#453D43"/>
<path fill-rule="evenodd" clip-rule="evenodd" d="M13.0354 19.5383C9.49124 19.5452 6.61208 16.6778 6.60521 13.1327C6.59831 9.58855 9.46652 6.70895 13.0107 6.70207C16.5557 6.69518 19.4352 9.56425 19.4421 13.1081C19.449 16.6531 16.58 19.5314 13.0354 19.5383ZM13.0151 8.9543C10.7147 8.95836 8.85254 10.8275 8.85659 13.1283C8.86104 15.4295 10.7305 17.2914 13.0309 17.2869C15.3322 17.2824 17.1944 15.4137 17.1899 13.1125C17.1854 10.8113 15.316 8.94985 13.0151 8.9543Z" fill="#453D43"/>
<path fill-rule="evenodd" clip-rule="evenodd" d="M4.81427 1.29402C5.60808 0.982976 6.51649 0.769941 7.84651 0.707166C9.1798 0.643181 9.60544 0.628596 12.9993 0.622119C16.3941 0.615641 16.8197 0.628594 18.153 0.687724C19.4834 0.745234 20.3922 0.955031 21.1877 1.26284C22.0106 1.57995 22.7088 2.00684 23.4046 2.6998C24.1004 3.39357 24.5289 4.08938 24.8501 4.91113C25.1607 5.70576 25.3737 6.61337 25.4369 7.94423C25.5001 9.27709 25.5155 9.70234 25.522 13.0967C25.5285 16.4907 25.5147 16.9167 25.4564 18.2508C25.3984 19.5804 25.1891 20.4897 24.8813 21.2847C24.5633 22.1077 24.1373 22.8059 23.4443 23.5017C22.7514 24.1979 22.0548 24.626 21.233 24.9476C20.4384 25.2578 19.5308 25.4709 18.2008 25.5344C16.8675 25.5976 16.4419 25.6126 13.0467 25.6191C9.65322 25.6256 9.22758 25.6126 7.89432 25.5539C6.56388 25.4956 5.65466 25.2862 4.85963 24.9788C4.03668 24.6604 3.33846 24.2348 2.64266 23.5414C1.94647 22.848 1.51759 22.1518 1.19683 21.3301C0.885789 20.5359 0.673549 19.6278 0.609972 18.2982C0.546392 16.9645 0.531412 16.5385 0.524937 13.1445C0.518437 9.75014 0.531809 9.32489 0.590122 7.9916C0.648854 6.66076 0.857434 5.75192 1.16524 4.95608C1.48315 4.13351 1.90921 3.43569 2.60299 2.73949C3.29594 2.04369 3.99253 1.61437 4.81427 1.29402ZM5.67087 22.8788C6.11191 23.0485 6.77367 23.251 7.99233 23.3041C9.31101 23.3612 9.70587 23.3737 13.0427 23.3672C16.3807 23.3612 16.7756 23.347 18.0938 23.285C19.3113 23.2271 19.973 23.0222 20.4129 22.8505C20.9965 22.6224 21.412 22.3499 21.8486 21.9129C22.2852 21.4742 22.5553 21.0575 22.7813 20.4739C22.9514 20.0324 23.1535 19.3702 23.2066 18.1516C23.2645 16.8337 23.2766 16.4384 23.2702 13.1008C23.2641 9.76391 23.2499 9.36863 23.1871 8.05033C23.1296 6.83247 22.9251 6.17069 22.753 5.73126C22.525 5.14684 22.2532 4.73212 21.815 4.29512C21.3768 3.85811 20.96 3.58878 20.3756 3.36279C19.9354 3.19229 19.2728 2.99059 18.055 2.93754C16.7363 2.87962 16.341 2.86787 13.0034 2.87436C9.66659 2.88083 9.27173 2.89419 7.95345 2.95657C6.73521 3.01448 6.07424 3.21901 5.63359 3.39114C5.05039 3.61916 4.63486 3.89011 4.19787 4.32873C3.76167 4.76735 3.49154 5.18329 3.26556 5.76812C3.09628 6.20877 2.89255 6.87136 2.84031 8.08922C2.78279 9.40791 2.77065 9.8032 2.77713 13.14C2.78321 16.4777 2.79738 16.873 2.85935 18.1905C2.91645 19.4091 3.12258 20.0701 3.29391 20.5112C3.52192 21.094 3.79369 21.5095 4.23149 21.9465C4.67011 22.3819 5.08685 22.6528 5.67087 22.8788Z" fill="#453D43"/>
</svg>
