<svg width="26" height="26" viewBox="0 0 26 26" fill="none" xmlns="http://www.w3.org/2000/svg">
<g clip-path="url(#clip0_9970_1663)">
<path d="M23.6729 0.620605H2.36914C1.34863 0.620605 0.523438 1.42627 0.523438 2.42236V23.814C0.523438 24.8101 1.34863 25.6206 2.36914 25.6206H23.6729C24.6934 25.6206 25.5234 24.8101 25.5234 23.8188V2.42236C25.5234 1.42627 24.6934 0.620605 23.6729 0.620605ZM7.94043 21.9243H4.22949V9.99072H7.94043V21.9243ZM6.08496 8.36475C4.89355 8.36475 3.93164 7.40283 3.93164 6.21631C3.93164 5.02978 4.89355 4.06787 6.08496 4.06787C7.27148 4.06787 8.2334 5.02978 8.2334 6.21631C8.2334 7.39795 7.27148 8.36475 6.08496 8.36475ZM21.8271 21.9243H18.1211V16.1235C18.1211 14.7417 18.0967 12.9595 16.1924 12.9595C14.2637 12.9595 13.9707 14.4683 13.9707 16.0259V21.9243H10.2695V9.99072H13.8242V11.6216H13.873C14.3662 10.6841 15.5771 9.69287 17.3789 9.69287C21.1338 9.69287 21.8271 12.1636 21.8271 15.3765V21.9243Z" fill="#453D43"/>
</g>
<defs>
<clipPath id="clip0_9970_1663">
<rect width="25" height="25" fill="white" transform="translate(0.523438 0.620605)"/>
</clipPath>
</defs>
</svg>
